# xmcd
#
# Track frame offsets: 
#        150
#        11166
#        23323
#        38000
#        49536
#        63427
#        78946
#        93262
#        105424
#        115556
#        128104
#        141070
#        153769
#        164279
#        175242
#        186493
#
# Disc length: 2647 seconds
#
# Revision: 1
# Processed by: cddbd v1.5.2PL0 Copyright (c) Steve Scherf et al.
# Submitted via: ExactAudioCopy v0.95b4
#
DISCID=b70a5510
DTITLE=Johnny Smith - Moonlight in Vermont
DYEAR=1956
DGENRE=Cool Jazz
TTITLE0=Where or When
TTITLE1=Tabu
TTITLE2=Moonlight in Vermont
TTITLE3=Jaguar
TTITLE4=Stars Fell on Alabama
TTITLE5=Tenderly
TTITLE6=(I Don't Stand a) Ghost of a Chance
TTITLE7=Vilia
TTITLE8=Cavu
TTITLE9=I'll Be Around
TTITLE10=Yesterdays
TTITLE11=Cherokee
TTITLE12=Sometimes I'm Happy
TTITLE13=Nice Work if You Can Get It
TTITLE14=Jaguar [alt.]
TTITLE15=My Funny Valentine
EXTD=John Henry "Johnny" Smith, Jr. (b.1922): guitar\nSanford Gold: pi
EXTD=ano\nStan Getz (tracks 1-6,13,14), Zoot Sims (7,8,15,16), Paul Qu
EXTD=inichette (9-12): tenor sax\nEddie Safranski (1-4,7,8,15,16), Bob
EXTD=Carter (5,6,13,14), Arnold Fishkin (9-12): bass\nDon Lamond (1-4
EXTD=,7-12,15,16), Morey Feld (5,6,13,14): drums\nRecorded New York US
EXTD=NY, 1952-03-11 (1-4), 1952-04 (7,8,15,16), 1952-11 (5,6,13,14) a
EXTD=nd 1953-08 (9-12).\nRecording sessions produced by Teddy Reig.\nT
EXTD=racks 1-12 released as "Moonlight in Vermont", Roost LP RST-2211 
EXTD=(1956), and again as Roost LP RST-2251 (1963).\nAll tracks previo
EXTD=usly issued on "Moonlight in Vermont", Roulette Jazz CD B2-97747 
EXTD=(1991), which included three additional tracks.\nReissue produced
EXTD=by Michael Cuscuna.\nTape transfers and 24-bit mastering by Malc
EXTD=olm Addey at the Malcolm Addey Studio, New York US-NY.\nSee <http
EXTD=://www.mosaicrecords.com/discography.asp?number=216-MD-CD> for ad
EXTD=ditional discographical details.\nCD: EMI/Roulette Jazz 93091 (20
EXTD=04-02-24), UPC 724359309125.
EXTT0=(Richard Rodgers/Lorenz Hart)
EXTT1=(Al Stillman/Bob Russell/Margarita Lecuona)
EXTT2=(John Blackburn/Karl Suessdorf)
EXTT3=(Johnny Smith)
EXTT4=(Mitchell Parish/Frank Perkins)
EXTT5=(Jack Lawrence/Walter Gross)
EXTT6=(Bing Crosby/Ned Washington/Victor Young)
EXTT7=(Franz Lehár)
EXTT8=(Johnny Smith)
EXTT9=(Alec Wilder)
EXTT10=(Jerome Kern/Otto Harbach)
EXTT11=(Ray Noble)
EXTT12=(Vincent Youmans/Irving Caesar)
EXTT13=(George Gershwin/Ira Gershwin)
EXTT14=(Johnny Smith)
EXTT15=(Richard Rodgers/Lorenz Hart)
PLAYORDER=
